<?xml version="1.0" standalone="no"?>
<!DOCTYPE svg PUBLIC "-//W3C//DTD SVG 20010904//EN"
 "http://www.w3.org/TR/2001/REC-SVG-20010904/DTD/svg10.dtd">
<svg version="1.0" xmlns="http://www.w3.org/2000/svg"
 width="100.000000pt" height="100.000000pt" viewBox="0 0 100.000000 100.000000"
 preserveAspectRatio="xMidYMid meet">

<g transform="translate(0.000000,100.000000) scale(0.100000,-0.100000)"
fill="#000000" stroke="none">
<path d="M0 500 l0 -500 500 0 500 0 0 500 0 500 -500 0 -500 0 0 -500z m555
480 c9 -15 -15 -42 -32 -36 -29 12 -159 -15 -220 -44 -76 -38 -159 -118 -198
-193 -29 -56 -56 -71 -63 -36 -5 27 99 171 153 212 64 48 139 85 195 96 64 13
158 13 165 1z"/>
</g>
</svg>
